<?xml version="1.0" encoding="UTF-8"?><svg xmlns="http://www.w3.org/2000/svg" viewBox="0 0 449.44 448.93"><defs><style>.cls-1{fill:#fff;}.cls-2{letter-spacing:0em;}.cls-3{letter-spacing:0em;}.cls-4{fill:#f7fff7;}.cls-5{font-family:Lora-Regular, Lora;font-size:39px;stroke:#0b022d;stroke-miterlimit:10;}.cls-5,.cls-6{fill:#0b022d;}.cls-7{letter-spacing:0em;}.cls-8{letter-spacing:0em;}</style></defs><g id="Layer_4"><g><g><path class="cls-4" d="M224.73,443.64c-58.53,0-113.56-22.79-154.95-64.18C28.39,338.07,5.6,283.04,5.6,224.5S28.39,110.94,69.78,69.56C111.17,28.17,166.2,5.37,224.73,5.37s113.56,22.79,154.95,64.18c41.39,41.39,64.18,96.42,64.18,154.95s-22.79,113.56-64.18,154.95c-41.39,41.39-96.42,64.18-154.95,64.18Z"/><path class="cls-4" d="M224.73,10.37c118.26,0,214.13,95.87,214.13,214.13s-95.87,214.13-214.13,214.13S10.6,342.77,10.6,224.5,106.47,10.37,224.73,10.37m0-10c-30.25,0-59.61,5.93-87.24,17.62-26.69,11.29-50.66,27.45-71.24,48.03-20.58,20.58-36.74,44.55-48.03,71.24C6.53,164.9,.6,194.25,.6,224.5s5.93,59.61,17.62,87.24c11.29,26.69,27.45,50.66,48.03,71.24,20.58,20.58,44.55,36.74,71.24,48.03,27.64,11.69,56.99,17.62,87.24,17.62s59.61-5.93,87.24-17.62c26.69-11.29,50.66-27.45,71.24-48.03,20.58-20.58,36.74-44.55,48.03-71.24,11.69-27.64,17.62-56.99,17.62-87.24s-5.93-59.61-17.62-87.24c-11.29-26.69-27.45-50.66-48.03-71.24-20.58-20.58-44.55-36.74-71.24-48.03C284.34,6.3,254.98,.37,224.73,.37h0Z"/></g><g><path class="cls-4" d="M224.73,441.14c-57.86,0-112.27-22.53-153.18-63.45C30.63,336.77,8.1,282.37,8.1,224.5S30.63,112.24,71.55,71.32,166.86,7.87,224.73,7.87s112.26,22.53,153.18,63.45c40.92,40.92,63.45,95.32,63.45,153.18s-22.53,112.26-63.45,153.18c-40.92,40.92-95.32,63.45-153.18,63.45Z"/><path class="cls-6" d="M224.73,10.37c118.26,0,214.13,95.87,214.13,214.13s-95.87,214.13-214.13,214.13S10.6,342.77,10.6,224.5,106.47,10.37,224.73,10.37m0-5c-29.58,0-58.28,5.79-85.3,17.22-26.09,11.04-49.53,26.84-69.65,46.96-20.12,20.12-35.92,43.56-46.96,69.65-11.43,27.02-17.22,55.72-17.22,85.3s5.79,58.28,17.22,85.3c11.04,26.09,26.84,49.53,46.96,69.65,20.12,20.12,43.56,35.92,69.65,46.96,27.02,11.43,55.72,17.22,85.3,17.22s58.28-5.79,85.3-17.22c26.09-11.04,49.53-26.84,69.65-46.96,20.12-20.12,35.92-43.56,46.96-69.65,11.43-27.02,17.22-55.72,17.22-85.3s-5.79-58.28-17.22-85.3c-11.04-26.09-26.84-49.53-46.96-69.65-20.12-20.12-43.56-35.92-69.65-46.96-27.02-11.43-55.72-17.22-85.3-17.22h0Z"/></g><text class="cls-5" transform="translate(97.87 299.49)"><tspan x="0" y="0">A</tspan><tspan class="cls-2" x="24.41" y="0">cc</tspan><tspan x="65.52" y="0">ess</tspan><tspan class="cls-3" x="122.77" y="0">iB</tspan><tspan class="cls-7" x="157.44" y="0">ud</tspan><tspan class="cls-8" x="204.05" y="0">d</tspan><tspan class="cls-7" x="227.13" y="0">y</tspan></text><circle class="cls-6" cx="224.73" cy="196.07" r="60.04"/></g></g><g id="Layer_5"><g><path class="cls-1" d="M214.41,190.82c0-4.42,0-8.83,0-13.25,0-.34-.07-.46-.44-.49-5.23-.49-10.46-1.01-15.7-1.5-3.07,.07-6.05-1.68-5.52-5.12,.39-2.22,2.37-3.76,4.59-3.55,9.07,.86,18.14,1.75,27.21,2.6,9.22-.7,18.43-1.79,27.64-2.6,5.22-.53,6.48,7.54,1.11,8.43-5.94,.68-11.91,1.14-17.86,1.76-.44,9.2-.48,19.13,.04,28.47,2.62,8.37,5.27,16.72,7.86,25.1,1.6,5.36-6.56,7.79-8.18,2.42-3.03-9.71-6.09-19.42-9.12-29.13-.25-1.37-2.15-1.51-2.52-.1-3.05,9.72-6.09,19.45-9.14,29.17-1.74,5.57-9.95,2.9-8.15-2.54,2.65-8.89,5.82-17.69,8.18-26.63,0-4.35,0-8.7,0-13.05Z"/><path class="cls-1" d="M224.81,150.98c9.6-.14,10.21,14.8,.09,15.11-9.87-.02-10.19-14.94-.09-15.11Z"/></g></g></svg>