<?xml version="1.0" encoding="UTF-8"?><svg id="Layer_2" xmlns="http://www.w3.org/2000/svg" viewBox="0 0 318.93 318.93"><defs><style>.cls-1{fill:#fff;}.cls-2{fill:#0b022d;}</style></defs><g id="Layer_1-2"><circle class="cls-2" cx="159.46" cy="159.46" r="159.46"/><g><path class="cls-1" d="M132.05,145.5c0-11.73,0-23.46,.02-35.19,0-.9-.17-1.22-1.18-1.3-13.9-1.31-27.79-2.69-41.69-3.98-8.17,.18-16.07-4.47-14.67-13.6,1.03-5.9,6.3-9.99,12.18-9.42,24.09,2.3,48.18,4.64,72.27,6.9,24.48-1.86,48.94-4.77,73.42-6.9,13.87-1.42,17.2,20.04,2.94,22.39-15.78,1.8-31.63,3.03-47.43,4.69-1.16,24.42-1.28,50.82,.11,75.62,6.96,22.22,14,44.42,20.88,66.66,4.25,14.22-17.42,20.68-21.72,6.44-8.06-25.8-16.17-51.58-24.23-77.38-.65-3.63-5.71-4.02-6.7-.27-8.11,25.82-16.17,51.66-24.27,77.49-4.61,14.78-26.43,7.71-21.66-6.74,7.03-23.61,15.47-46.98,21.72-70.74,.01-11.55,0-23.11,0-34.66Z"/><path class="cls-1" d="M159.68,39.69c25.5-.38,27.11,39.31,.23,40.14-26.23-.06-27.07-39.68-.23-40.14Z"/></g></g></svg>